STARTFONT 2.1
COMMENT Recovered from ar1.1:CLARB 4 (Xerox Alto CONVERT font source (AL) recovered from MIT CADR AR1 ARC!!!)
FONT MIT-CADR-CLARB-AL-AR1
SIZE 14 72 72
FONTBOUNDINGBOX 16 14 0 -14
STARTPROPERTIES 2
FONT_ASCENT 0
FONT_DESCENT 14
ENDPROPERTIES
CHARS 128
STARTCHAR C0000
ENCODING -1 0
SWIDTH 0 0
DWIDTH 0 0
BBX 0 14 0 -14
BITMAP
00
00
00
00
00
00
00
00
00
00
00
00
00
00
ENDCHAR
STARTCHAR C0001
ENCODING -1 1
SWIDTH 0 0
DWIDTH 0 0
BBX 0 14 0 -14
BITMAP
00
00
00
00
00
00
00
00
00
00
00
00
00
00
ENDCHAR
STARTCHAR C0002
ENCODING -1 2
SWIDTH 0 0
DWIDTH 0 0
BBX 0 14 0 -14
BITMAP
00
00
00
00
00
00
00
00
00
00
00
00
00
00
ENDCHAR
STARTCHAR C0003
ENCODING -1 3
SWIDTH 0 0
DWIDTH 0 0
BBX 0 14 0 -14
BITMAP
00
00
00
00
00
00
00
00
00
00
00
00
00
00
ENDCHAR
STARTCHAR C0004
ENCODING -1 4
SWIDTH 0 0
DWIDTH 0 0
BBX 0 14 0 -14
BITMAP
00
00
00
00
00
00
00
00
00
00
00
00
00
00
ENDCHAR
STARTCHAR C0005
ENCODING -1 5
SWIDTH 0 0
DWIDTH 0 0
BBX 0 14 0 -14
BITMAP
00
00
00
00
00
00
00
00
00
00
00
00
00
00
ENDCHAR
STARTCHAR C0006
ENCODING -1 6
SWIDTH 0 0
DWIDTH 0 0
BBX 0 14 0 -14
BITMAP
00
00
00
00
00
00
00
00
00
00
00
00
00
00
ENDCHAR
STARTCHAR C0007
ENCODING -1 7
SWIDTH 0 0
DWIDTH 0 0
BBX 0 14 0 -14
BITMAP
00
00
00
00
00
00
00
00
00
00
00
00
00
00
ENDCHAR
STARTCHAR C0008
ENCODING -1 8
SWIDTH 0 0
DWIDTH 0 0
BBX 0 14 0 -14
BITMAP
00
00
00
00
00
00
00
00
00
00
00
00
00
00
ENDCHAR
STARTCHAR C0009
ENCODING -1 9
SWIDTH 0 0
DWIDTH 0 0
BBX 0 14 0 -14
BITMAP
00
00
00
00
00
00
00
00
00
00
00
00
00
00
ENDCHAR
STARTCHAR C000A
ENCODING -1 10
SWIDTH 0 0
DWIDTH 0 0
BBX 5 14 0 -14
BITMAP
00
00
38
38
38
38
38
38
38
38
00
38
38
38
ENDCHAR
STARTCHAR C000B
ENCODING -1 11
SWIDTH 0 0
DWIDTH 0 0
BBX 0 14 0 -14
BITMAP
00
00
00
00
00
00
00
00
00
00
00
00
00
00
ENDCHAR
STARTCHAR C000C
ENCODING -1 12
SWIDTH 0 0
DWIDTH 0 0
BBX 0 14 0 -14
BITMAP
00
00
00
00
00
00
00
00
00
00
00
00
00
00
ENDCHAR
STARTCHAR C000D
ENCODING -1 13
SWIDTH 0 0
DWIDTH 0 0
BBX 0 14 0 -14
BITMAP
00
00
00
00
00
00
00
00
00
00
00
00
00
00
ENDCHAR
STARTCHAR C000E
ENCODING -1 14
SWIDTH 0 0
DWIDTH 0 0
BBX 0 14 0 -14
BITMAP
00
00
00
00
00
00
00
00
00
00
00
00
00
00
ENDCHAR
STARTCHAR C000F
ENCODING -1 15
SWIDTH 0 0
DWIDTH 0 0
BBX 0 14 0 -14
BITMAP
00
00
00
00
00
00
00
00
00
00
00
00
00
00
ENDCHAR
STARTCHAR C0010
ENCODING -1 16
SWIDTH 0 0
DWIDTH 0 0
BBX 0 14 0 -14
BITMAP
00
00
00
00
00
00
00
00
00
00
00
00
00
00
ENDCHAR
STARTCHAR C0011
ENCODING -1 17
SWIDTH 0 0
DWIDTH 0 0
BBX 0 14 0 -14
BITMAP
00
00
00
00
00
00
00
00
00
00
00
00
00
00
ENDCHAR
STARTCHAR C0012
ENCODING -1 18
SWIDTH 0 0
DWIDTH 0 0
BBX 0 14 0 -14
BITMAP
00
00
00
00
00
00
00
00
00
00
00
00
00
00
ENDCHAR
STARTCHAR C0013
ENCODING -1 19
SWIDTH 0 0
DWIDTH 0 0
BBX 0 14 0 -14
BITMAP
00
00
00
00
00
00
00
00
00
00
00
00
00
00
ENDCHAR
STARTCHAR C0014
ENCODING -1 20
SWIDTH 1143 0
DWIDTH 16 0
BBX 16 14 0 -14
BITMAP
0FE0
1FF0
1830
1830
1830
1830
1830
1830
3838
5FF4
8FE2
F55E
2AA8
1FF0
ENDCHAR
STARTCHAR C0015
ENCODING -1 21
SWIDTH 0 0
DWIDTH 0 0
BBX 0 14 0 -14
BITMAP
00
00
00
00
00
00
00
00
00
00
00
00
00
00
ENDCHAR
STARTCHAR C0016
ENCODING -1 22
SWIDTH 0 0
DWIDTH 0 0
BBX 0 14 0 -14
BITMAP
00
00
00
00
00
00
00
00
00
00
00
00
00
00
ENDCHAR
STARTCHAR C0017
ENCODING -1 23
SWIDTH 0 0
DWIDTH 0 0
BBX 0 14 0 -14
BITMAP
00
00
00
00
00
00
00
00
00
00
00
00
00
00
ENDCHAR
STARTCHAR C0018
ENCODING -1 24
SWIDTH 0 0
DWIDTH 0 0
BBX 0 14 0 -14
BITMAP
00
00
00
00
00
00
00
00
00
00
00
00
00
00
ENDCHAR
STARTCHAR C0019
ENCODING -1 25
SWIDTH 0 0
DWIDTH 0 0
BBX 0 14 0 -14
BITMAP
00
00
00
00
00
00
00
00
00
00
00
00
00
00
ENDCHAR
STARTCHAR C001A
ENCODING -1 26
SWIDTH 0 0
DWIDTH 0 0
BBX 0 14 0 -14
BITMAP
00
00
00
00
00
00
00
00
00
00
00
00
00
00
ENDCHAR
STARTCHAR C001B
ENCODING -1 27
SWIDTH 0 0
DWIDTH 0 0
BBX 0 14 0 -14
BITMAP
00
00
00
00
00
00
00
00
00
00
00
00
00
00
ENDCHAR
STARTCHAR C001C
ENCODING -1 28
SWIDTH 0 0
DWIDTH 0 0
BBX 0 14 0 -14
BITMAP
00
00
00
00
00
00
00
00
00
00
00
00
00
00
ENDCHAR
STARTCHAR C001D
ENCODING -1 29
SWIDTH 0 0
DWIDTH 0 0
BBX 0 14 0 -14
BITMAP
00
00
00
00
00
00
00
00
00
00
00
00
00
00
ENDCHAR
STARTCHAR C001E
ENCODING -1 30
SWIDTH 0 0
DWIDTH 0 0
BBX 0 14 0 -14
BITMAP
00
00
00
00
00
00
00
00
00
00
00
00
00
00
ENDCHAR
STARTCHAR C001F
ENCODING -1 31
SWIDTH 0 0
DWIDTH 0 0
BBX 0 14 0 -14
BITMAP
00
00
00
00
00
00
00
00
00
00
00
00
00
00
ENDCHAR
STARTCHAR C0020
ENCODING -1 32
SWIDTH 500 0
DWIDTH 7 0
BBX 7 14 0 -14
BITMAP
00
00
00
00
00
00
00
00
00
00
00
00
00
00
ENDCHAR
STARTCHAR C0021
ENCODING -1 33
SWIDTH 429 0
DWIDTH 6 0
BBX 6 14 0 -14
BITMAP
00
30
30
30
30
30
30
30
00
30
30
00
00
00
ENDCHAR
STARTCHAR C0022
ENCODING -1 34
SWIDTH 500 0
DWIDTH 7 0
BBX 7 14 0 -14
BITMAP
00
6C
6C
6C
6C
00
00
00
00
00
00
00
00
00
ENDCHAR
STARTCHAR C0023
ENCODING -1 35
SWIDTH 857 0
DWIDTH 12 0
BBX 12 14 0 -14
BITMAP
0000
06C0
0D80
0D80
3FC0
1B00
7F80
3600
3600
6C00
0000
0000
0000
0000
ENDCHAR
STARTCHAR C0024
ENCODING -1 36
SWIDTH 500 0
DWIDTH 7 0
BBX 7 14 0 -14
BITMAP
18
3C
7E
78
78
38
1C
1E
1E
7E
3C
18
00
00
ENDCHAR
STARTCHAR C0025
ENCODING -1 37
SWIDTH 643 0
DWIDTH 9 0
BBX 9 14 0 -14
BITMAP
0000
3300
7E00
3600
0C00
0C00
1800
1800
3000
3600
6F00
6600
0000
0000
ENDCHAR
STARTCHAR C0026
ENCODING -1 38
SWIDTH 643 0
DWIDTH 9 0
BBX 9 14 0 -14
BITMAP
0000
0000
0000
3800
6C00
6C00
3800
3F00
6600
6700
3D80
0000
0000
0000
ENDCHAR
STARTCHAR C0027
ENCODING -1 39
SWIDTH 357 0
DWIDTH 5 0
BBX 5 14 0 -14
BITMAP
00
30
30
30
30
60
00
00
00
00
00
00
00
00
ENDCHAR
STARTCHAR C0028
ENCODING -1 40
SWIDTH 571 0
DWIDTH 8 0
BBX 8 14 0 -14
BITMAP
00
0C
18
30
60
60
60
60
60
60
30
18
0C
00
ENDCHAR
STARTCHAR C0029
ENCODING -1 41
SWIDTH 571 0
DWIDTH 8 0
BBX 8 14 0 -14
BITMAP
00
30
18
0C
06
06
06
06
06
06
0C
18
30
00
ENDCHAR
STARTCHAR C002A
ENCODING -1 42
SWIDTH 714 0
DWIDTH 10 0
BBX 10 14 0 -14
BITMAP
0000
0000
6D80
3F00
1E00
7F80
1E00
3F00
6D80
0000
0000
0000
0000
0000
ENDCHAR
STARTCHAR C002B
ENCODING -1 43
SWIDTH 500 0
DWIDTH 7 0
BBX 7 14 0 -14
BITMAP
00
00
00
18
18
7E
7E
18
18
00
00
00
00
00
ENDCHAR
STARTCHAR C002C
ENCODING -1 44
SWIDTH 500 0
DWIDTH 7 0
BBX 7 14 0 -14
BITMAP
00
00
00
00
00
00
00
00
00
70
30
30
60
00
ENDCHAR
STARTCHAR C002D
ENCODING -1 45
SWIDTH 500 0
DWIDTH 7 0
BBX 7 14 0 -14
BITMAP
00
00
00
00
00
00
7E
7E
00
00
00
00
00
00
ENDCHAR
STARTCHAR C002E
ENCODING -1 46
SWIDTH 500 0
DWIDTH 7 0
BBX 7 14 0 -14
BITMAP
00
00
00
00
00
00
00
00
18
3C
18
00
00
00
ENDCHAR
STARTCHAR C002F
ENCODING -1 47
SWIDTH 571 0
DWIDTH 8 0
BBX 8 14 0 -14
BITMAP
00
03
06
06
0C
0C
18
18
30
30
60
60
C0
00
ENDCHAR
STARTCHAR C0030
ENCODING -1 48
SWIDTH 500 0
DWIDTH 7 0
BBX 7 14 0 -14
BITMAP
06
3C
7E
66
66
66
66
66
66
66
3C
00
00
00
ENDCHAR
STARTCHAR C0031
ENCODING -1 49
SWIDTH 500 0
DWIDTH 7 0
BBX 7 14 0 -14
BITMAP
00
18
38
78
18
18
18
18
18
18
7E
00
00
00
ENDCHAR
STARTCHAR C0032
ENCODING -1 50
SWIDTH 500 0
DWIDTH 7 0
BBX 7 14 0 -14
BITMAP
00
3C
66
06
06
0C
18
30
60
60
7E
00
00
00
ENDCHAR
STARTCHAR C0033
ENCODING -1 51
SWIDTH 500 0
DWIDTH 7 0
BBX 7 14 0 -14
BITMAP
00
7C
C6
06
06
3C
06
06
06
C6
7C
00
00
00
ENDCHAR
STARTCHAR C0034
ENCODING -1 52
SWIDTH 500 0
DWIDTH 7 0
BBX 7 14 0 -14
BITMAP
00
0C
1C
3C
3C
6C
CC
FE
0C
0C
0C
00
00
00
ENDCHAR
STARTCHAR C0035
ENCODING -1 53
SWIDTH 500 0
DWIDTH 7 0
BBX 7 14 0 -14
BITMAP
00
7E
60
60
7C
06
06
06
06
66
3C
00
00
00
ENDCHAR
STARTCHAR C0036
ENCODING -1 54
SWIDTH 500 0
DWIDTH 7 0
BBX 7 14 0 -14
BITMAP
00
3C
66
60
60
7C
76
66
66
66
3C
00
00
00
ENDCHAR
STARTCHAR C0037
ENCODING -1 55
SWIDTH 500 0
DWIDTH 7 0
BBX 7 14 0 -14
BITMAP
00
FE
06
0C
0C
18
18
30
30
60
60
00
00
00
ENDCHAR
STARTCHAR C0038
ENCODING -1 56
SWIDTH 500 0
DWIDTH 7 0
BBX 7 14 0 -14
BITMAP
00
3C
66
66
3C
18
3C
66
66
66
3C
00
00
00
ENDCHAR
STARTCHAR C0039
ENCODING -1 57
SWIDTH 500 0
DWIDTH 7 0
BBX 7 14 0 -14
BITMAP
00
3C
66
66
66
66
3E
06
06
66
3C
00
00
00
ENDCHAR
STARTCHAR C003A
ENCODING -1 58
SWIDTH 571 0
DWIDTH 8 0
BBX 8 14 0 -14
BITMAP
00
00
00
18
3C
18
00
00
18
3C
18
00
00
00
ENDCHAR
STARTCHAR C003B
ENCODING -1 59
SWIDTH 500 0
DWIDTH 7 0
BBX 7 14 0 -14
BITMAP
00
00
00
00
00
00
70
70
00
70
30
30
60
00
ENDCHAR
STARTCHAR C003C
ENCODING -1 60
SWIDTH 571 0
DWIDTH 8 0
BBX 8 14 0 -14
BITMAP
00
00
00
06
0C
18
30
60
30
18
0C
06
00
00
ENDCHAR
STARTCHAR C003D
ENCODING -1 61
SWIDTH 643 0
DWIDTH 9 0
BBX 9 14 0 -14
BITMAP
0000
0000
0000
0000
0000
7F00
7F00
0000
7F00
7F00
0000
0000
0000
0000
ENDCHAR
STARTCHAR C003E
ENCODING -1 62
SWIDTH 571 0
DWIDTH 8 0
BBX 8 14 0 -14
BITMAP
00
00
00
60
30
18
0C
06
0C
18
30
60
00
00
ENDCHAR
STARTCHAR C003F
ENCODING -1 63
SWIDTH 571 0
DWIDTH 8 0
BBX 8 14 0 -14
BITMAP
00
00
3C
66
66
06
0C
18
18
18
00
18
00
00
ENDCHAR
STARTCHAR C0040
ENCODING -1 64
SWIDTH 786 0
DWIDTH 11 0
BBX 11 14 0 -14
BITMAP
0000
1F00
3180
6EC0
7BC0
7BC0
7BC0
7BC0
6F80
3000
1FC0
0000
0000
0000
ENDCHAR
STARTCHAR C0041
ENCODING -1 65
SWIDTH 643 0
DWIDTH 9 0
BBX 9 14 0 -14
BITMAP
0000
0C00
1E00
3300
3300
6180
6180
7F80
6180
6180
6180
0000
0000
0000
ENDCHAR
STARTCHAR C0042
ENCODING -1 66
SWIDTH 571 0
DWIDTH 8 0
BBX 8 14 0 -14
BITMAP
00
7C
66
66
66
7C
66
63
63
63
7E
00
00
00
ENDCHAR
STARTCHAR C0043
ENCODING -1 67
SWIDTH 643 0
DWIDTH 9 0
BBX 9 14 0 -14
BITMAP
0000
1F00
3180
6180
6000
6000
6000
6000
6180
3180
1F00
0000
0000
0000
ENDCHAR
STARTCHAR C0044
ENCODING -1 68
SWIDTH 643 0
DWIDTH 9 0
BBX 9 14 0 -14
BITMAP
0000
7C00
6600
6300
6300
6300
6300
6300
6300
6600
7C00
0000
0000
0000
ENDCHAR
STARTCHAR C0045
ENCODING -1 69
SWIDTH 500 0
DWIDTH 7 0
BBX 7 14 0 -14
BITMAP
00
7E
60
60
60
7C
60
60
60
60
7E
00
00
00
ENDCHAR
STARTCHAR C0046
ENCODING -1 70
SWIDTH 500 0
DWIDTH 7 0
BBX 7 14 0 -14
BITMAP
00
7E
60
60
60
7C
60
60
60
60
60
00
00
00
ENDCHAR
STARTCHAR C0047
ENCODING -1 71
SWIDTH 643 0
DWIDTH 9 0
BBX 9 14 0 -14
BITMAP
0000
1F00
3180
6000
6000
6000
6780
6180
6180
3380
1F80
0000
0000
0000
ENDCHAR
STARTCHAR C0048
ENCODING -1 72
SWIDTH 714 0
DWIDTH 10 0
BBX 10 14 0 -14
BITMAP
0000
6180
6180
6180
6180
7F80
6180
6180
6180
6180
6180
0000
0000
0000
ENDCHAR
STARTCHAR C0049
ENCODING -1 73
SWIDTH 500 0
DWIDTH 7 0
BBX 7 14 0 -14
BITMAP
00
7E
18
18
18
18
18
18
18
18
7E
00
00
00
ENDCHAR
STARTCHAR C004A
ENCODING -1 74
SWIDTH 643 0
DWIDTH 9 0
BBX 9 14 0 -14
BITMAP
0000
3F80
0600
0600
0600
0600
0600
0600
6600
6600
3C00
0000
0000
0000
ENDCHAR
STARTCHAR C004B
ENCODING -1 75
SWIDTH 571 0
DWIDTH 8 0
BBX 8 14 0 -14
BITMAP
00
63
66
6C
78
70
70
78
6C
66
63
00
00
00
ENDCHAR
STARTCHAR C004C
ENCODING -1 76
SWIDTH 500 0
DWIDTH 7 0
BBX 7 14 0 -14
BITMAP
00
60
60
60
60
60
60
60
60
60
7E
00
00
00
ENDCHAR
STARTCHAR C004D
ENCODING -1 77
SWIDTH 714 0
DWIDTH 10 0
BBX 10 14 0 -14
BITMAP
0000
6180
7380
7F80
6D80
6180
6180
6180
6180
6180
6180
0000
0000
0000
ENDCHAR
STARTCHAR C004E
ENCODING -1 78
SWIDTH 643 0
DWIDTH 9 0
BBX 9 14 0 -14
BITMAP
0000
6180
7180
7980
7980
6D80
6D80
6780
6780
6380
6180
0000
0000
0000
ENDCHAR
STARTCHAR C004F
ENCODING -1 79
SWIDTH 643 0
DWIDTH 9 0
BBX 9 14 0 -14
BITMAP
0000
1E00
3300
6180
6180
6180
6180
6180
6180
3300
1E00
0000
0000
0000
ENDCHAR
STARTCHAR C0050
ENCODING -1 80
SWIDTH 571 0
DWIDTH 8 0
BBX 8 14 0 -14
BITMAP
00
7E
63
63
63
63
7E
60
60
60
60
00
00
00
ENDCHAR
STARTCHAR C0051
ENCODING -1 81
SWIDTH 643 0
DWIDTH 9 0
BBX 9 14 0 -14
BITMAP
0000
3E00
6300
6300
6300
6300
6300
6300
6F00
6700
3F00
0180
0000
0000
ENDCHAR
STARTCHAR C0052
ENCODING -1 82
SWIDTH 571 0
DWIDTH 8 0
BBX 8 14 0 -14
BITMAP
00
7E
63
63
63
63
7E
78
6C
66
63
00
00
00
ENDCHAR
STARTCHAR C0053
ENCODING -1 83
SWIDTH 571 0
DWIDTH 8 0
BBX 8 14 0 -14
BITMAP
00
3E
63
60
60
3E
03
03
03
63
3E
00
00
00
ENDCHAR
STARTCHAR C0054
ENCODING -1 84
SWIDTH 643 0
DWIDTH 9 0
BBX 9 14 0 -14
BITMAP
0000
7F80
0C00
0C00
0C00
0C00
0C00
0C00
0C00
0C00
0C00
0000
0000
0000
ENDCHAR
STARTCHAR C0055
ENCODING -1 85
SWIDTH 643 0
DWIDTH 9 0
BBX 9 14 0 -14
BITMAP
0000
6300
6300
6300
6300
6300
6300
6300
6300
6300
3E00
0000
0000
0000
ENDCHAR
STARTCHAR C0056
ENCODING -1 86
SWIDTH 571 0
DWIDTH 8 0
BBX 8 14 0 -14
BITMAP
00
C3
C3
C3
66
66
66
3C
3C
18
18
00
00
00
ENDCHAR
STARTCHAR C0057
ENCODING -1 87
SWIDTH 714 0
DWIDTH 10 0
BBX 10 14 0 -14
BITMAP
0000
6180
6180
6180
6D80
6D80
6D80
7F80
7F80
7380
6180
0000
0000
0000
ENDCHAR
STARTCHAR C0058
ENCODING -1 88
SWIDTH 643 0
DWIDTH 9 0
BBX 9 14 0 -14
BITMAP
0000
6180
6180
3300
1E00
0C00
1E00
3300
6180
6180
6180
0000
0000
0000
ENDCHAR
STARTCHAR C0059
ENCODING -1 89
SWIDTH 571 0
DWIDTH 8 0
BBX 8 14 0 -14
BITMAP
00
C3
C3
66
3C
18
18
18
18
18
18
00
00
00
ENDCHAR
STARTCHAR C005A
ENCODING -1 90
SWIDTH 571 0
DWIDTH 8 0
BBX 8 14 0 -14
BITMAP
00
7F
03
03
06
0C
18
30
60
60
7F
00
00
00
ENDCHAR
STARTCHAR C005B
ENCODING -1 91
SWIDTH 571 0
DWIDTH 8 0
BBX 8 14 0 -14
BITMAP
7C
60
60
60
60
60
60
60
60
60
60
60
7C
00
ENDCHAR
STARTCHAR C005C
ENCODING -1 92
SWIDTH 571 0
DWIDTH 8 0
BBX 8 14 0 -14
BITMAP
00
C0
60
60
30
30
18
18
0C
0C
06
06
03
00
ENDCHAR
STARTCHAR C005D
ENCODING -1 93
SWIDTH 571 0
DWIDTH 8 0
BBX 8 14 0 -14
BITMAP
3E
06
06
06
06
06
06
06
06
06
06
06
3E
00
ENDCHAR
STARTCHAR C005E
ENCODING -1 94
SWIDTH 571 0
DWIDTH 8 0
BBX 8 14 0 -14
BITMAP
00
00
18
3C
7E
18
18
18
18
18
00
00
00
00
ENDCHAR
STARTCHAR C005F
ENCODING -1 95
SWIDTH 714 0
DWIDTH 10 0
BBX 10 14 0 -14
BITMAP
0000
0000
0000
1800
3000
7F80
3000
1800
0000
0000
0000
0000
0000
0000
ENDCHAR
STARTCHAR C0060
ENCODING -1 96
SWIDTH 0 0
DWIDTH 0 0
BBX 9 14 0 -14
BITMAP
0000
0000
0000
0000
0000
0000
0000
0000
0000
0000
0000
0000
0000
FF80
ENDCHAR
STARTCHAR C0061
ENCODING -1 97
SWIDTH 571 0
DWIDTH 8 0
BBX 8 14 0 -14
BITMAP
00
00
00
3E
66
06
3E
66
66
66
3F
00
00
00
ENDCHAR
STARTCHAR C0062
ENCODING -1 98
SWIDTH 571 0
DWIDTH 8 0
BBX 8 14 0 -14
BITMAP
60
60
60
7C
76
66
66
66
66
66
3C
00
00
00
ENDCHAR
STARTCHAR C0063
ENCODING -1 99
SWIDTH 500 0
DWIDTH 7 0
BBX 7 14 0 -14
BITMAP
00
00
00
1C
36
60
60
60
60
36
1C
00
00
00
ENDCHAR
STARTCHAR C0064
ENCODING -1 100
SWIDTH 571 0
DWIDTH 8 0
BBX 8 14 0 -14
BITMAP
06
06
06
3E
6E
66
66
66
66
66
3E
00
00
00
ENDCHAR
STARTCHAR C0065
ENCODING -1 101
SWIDTH 500 0
DWIDTH 7 0
BBX 7 14 0 -14
BITMAP
00
00
00
38
6C
C6
FE
C0
C0
66
3C
00
00
00
ENDCHAR
STARTCHAR C0066
ENCODING -1 102
SWIDTH 429 0
DWIDTH 6 0
BBX 7 14 0 -14
BITMAP
1E
30
30
30
7C
30
30
30
30
30
30
00
00
00
ENDCHAR
STARTCHAR C0067
ENCODING -1 103
SWIDTH 571 0
DWIDTH 8 0
BBX 8 14 0 -14
BITMAP
00
00
00
3C
66
66
66
66
66
6E
3E
06
66
3C
ENDCHAR
STARTCHAR C0068
ENCODING -1 104
SWIDTH 571 0
DWIDTH 8 0
BBX 8 14 0 -14
BITMAP
60
60
60
7C
76
66
66
66
66
66
66
00
00
00
ENDCHAR
STARTCHAR C0069
ENCODING -1 105
SWIDTH 357 0
DWIDTH 5 0
BBX 5 14 0 -14
BITMAP
70
70
00
70
30
30
30
30
30
30
30
00
00
00
ENDCHAR
STARTCHAR C006A
ENCODING -1 106
SWIDTH 500 0
DWIDTH 7 0
BBX 7 14 0 -14
BITMAP
1C
1C
00
1C
0C
0C
0C
0C
0C
0C
0C
CC
CC
78
ENDCHAR
STARTCHAR C006B
ENCODING -1 107
SWIDTH 500 0
DWIDTH 7 0
BBX 7 14 0 -14
BITMAP
60
60
60
66
6C
78
7C
6C
6C
66
66
00
00
00
ENDCHAR
STARTCHAR C006C
ENCODING -1 108
SWIDTH 357 0
DWIDTH 5 0
BBX 5 14 0 -14
BITMAP
70
30
30
30
30
30
30
30
30
30
30
00
00
00
ENDCHAR
STARTCHAR C006D
ENCODING -1 109
SWIDTH 714 0
DWIDTH 10 0
BBX 10 14 0 -14
BITMAP
0000
0000
0000
7F00
6D80
6D80
6D80
6D80
6D80
6D80
6D80
0000
0000
0000
ENDCHAR
STARTCHAR C006E
ENCODING -1 110
SWIDTH 571 0
DWIDTH 8 0
BBX 8 14 0 -14
BITMAP
00
00
00
7C
76
66
66
66
66
66
66
00
00
00
ENDCHAR
STARTCHAR C006F
ENCODING -1 111
SWIDTH 500 0
DWIDTH 7 0
BBX 7 14 0 -14
BITMAP
00
00
00
38
6C
C6
C6
C6
C6
6C
38
00
00
00
ENDCHAR
STARTCHAR C0070
ENCODING -1 112
SWIDTH 571 0
DWIDTH 8 0
BBX 8 14 0 -14
BITMAP
00
00
00
7C
76
63
63
63
63
66
7C
60
60
60
ENDCHAR
STARTCHAR C0071
ENCODING -1 113
SWIDTH 571 0
DWIDTH 8 0
BBX 8 14 0 -14
BITMAP
00
00
00
3E
6E
C6
C6
C6
C6
6E
3E
06
06
06
ENDCHAR
STARTCHAR C0072
ENCODING -1 114
SWIDTH 500 0
DWIDTH 7 0
BBX 7 14 0 -14
BITMAP
00
00
00
6E
7E
60
60
60
60
60
60
00
00
00
ENDCHAR
STARTCHAR C0073
ENCODING -1 115
SWIDTH 500 0
DWIDTH 7 0
BBX 7 14 0 -14
BITMAP
00
00
00
3C
66
60
38
0C
06
66
3C
00
00
00
ENDCHAR
STARTCHAR C0074
ENCODING -1 116
SWIDTH 429 0
DWIDTH 6 0
BBX 6 14 0 -14
BITMAP
00
30
30
FC
30
30
30
30
30
3C
18
00
00
00
ENDCHAR
STARTCHAR C0075
ENCODING -1 117
SWIDTH 571 0
DWIDTH 8 0
BBX 8 14 0 -14
BITMAP
00
00
00
66
66
66
66
66
66
6E
3E
00
00
00
ENDCHAR
STARTCHAR C0076
ENCODING -1 118
SWIDTH 571 0
DWIDTH 8 0
BBX 8 14 0 -14
BITMAP
00
00
00
66
66
66
66
3C
3C
18
18
00
00
00
ENDCHAR
STARTCHAR C0077
ENCODING -1 119
SWIDTH 714 0
DWIDTH 10 0
BBX 10 14 0 -14
BITMAP
0000
0000
0000
6180
6180
6D80
6D80
6D80
6D80
6D80
3F00
0000
0000
0000
ENDCHAR
STARTCHAR C0078
ENCODING -1 120
SWIDTH 643 0
DWIDTH 9 0
BBX 9 14 0 -14
BITMAP
0000
0000
0000
6300
6300
3600
1C00
1C00
3600
6300
6300
0000
0000
0000
ENDCHAR
STARTCHAR C0079
ENCODING -1 121
SWIDTH 571 0
DWIDTH 8 0
BBX 8 14 0 -14
BITMAP
00
00
00
66
66
66
66
66
66
66
3E
06
66
3C
ENDCHAR
STARTCHAR C007A
ENCODING -1 122
SWIDTH 643 0
DWIDTH 9 0
BBX 9 14 0 -14
BITMAP
0000
0000
0000
7F00
0300
0600
0C00
1800
3000
6000
7F00
0000
0000
0000
ENDCHAR
STARTCHAR C007B
ENCODING -1 123
SWIDTH 500 0
DWIDTH 7 0
BBX 7 14 0 -14
BITMAP
00
1E
30
30
30
30
60
C0
60
30
30
30
30
1E
ENDCHAR
STARTCHAR C007C
ENCODING -1 124
SWIDTH 571 0
DWIDTH 8 0
BBX 8 14 0 -14
BITMAP
18
18
18
18
18
18
18
18
18
18
18
18
18
18
ENDCHAR
STARTCHAR C007D
ENCODING -1 125
SWIDTH 500 0
DWIDTH 7 0
BBX 7 14 0 -14
BITMAP
00
F0
18
18
18
18
0C
06
0C
18
18
18
18
F0
ENDCHAR
STARTCHAR C007E
ENCODING -1 126
SWIDTH 714 0
DWIDTH 10 0
BBX 10 14 0 -14
BITMAP
0000
0000
3980
6D80
6700
0000
0000
0000
0000
0000
0000
0000
0000
0000
ENDCHAR
STARTCHAR C007F
ENCODING -1 127
SWIDTH 0 0
DWIDTH 0 0
BBX 0 14 0 -14
BITMAP
00
00
00
00
00
00
00
00
00
00
00
00
00
00
ENDCHAR
ENDFONT
